<svg xmlns="http://www.w3.org/2000/svg" viewBox="0 12.210000038146973 97.70999908447266 30.65999984741211" data-asc="0.83984375" width="97.70999908447266" height="30.65999984741211"><defs/><g fill="#800000"><g transform="translate(0, 0)"><path d="M18.02 13.96L18.02 12.70L5.08 12.70L5.08 13.96L9.47 13.96L9.47 33.79Q9.47 39.99 8.06 41.21Q7.47 41.65 6.69 41.65Q5.37 41.65 4.93 40.14Q4.39 38.28 4.30 38.13Q3.66 37.11 2.25 37.06Q0.68 37.06 0.15 38.48Q0 38.92 0 39.31Q0 41.31 2.54 42.29Q4.00 42.87 5.91 42.87Q10.40 42.87 12.60 39.45Q14.16 37.01 14.16 33.35L14.16 13.96L18.02 13.96ZM40.28 17.33Q40.28 14.50 42.53 13.67Q43.16 13.48 43.80 13.48Q46.48 13.48 47.17 15.87Q47.31 16.46 47.31 17.09Q47.31 19.34 44.97 21.14Q43.65 22.17 41.94 22.66Q40.28 19.24 40.28 17.33M42.19 41.02Q36.04 41.02 35.30 33.98Q35.21 33.06 35.21 32.13Q35.21 27.73 37.65 25.83Q38.28 25.39 38.92 25.20Q42.09 31.30 48.44 38.82Q45.65 41.02 42.19 41.02M54.74 26.42L54.69 26.42L54.83 26.42L56.35 26.37Q57.47 26.37 57.62 25.78Q57.71 25.44 57.71 25.05L50.68 25.05L50.68 26.32L53.37 26.32Q53.37 31.74 51.07 35.64Q45.31 28.71 42.53 23.73Q46.48 22.56 48.05 19.48Q48.68 18.26 48.68 17.09Q48.68 13.87 45.90 12.70Q44.78 12.21 43.51 12.21Q38.96 12.21 37.30 15.33Q36.62 16.65 36.62 18.26Q36.67 20.51 38.38 24.12Q32.37 25.83 31.01 30.76Q30.66 32.03 30.66 33.40Q30.66 37.84 34.03 40.43Q36.72 42.48 40.63 42.48Q45.85 42.43 49.27 39.75Q49.95 40.58 51.27 41.99L58.45 41.99Q58.45 40.87 57.67 40.77Q57.47 40.72 57.23 40.72L55.62 40.72Q53.17 38.04 52.00 36.72Q54.74 32.47 54.74 26.42ZM97.71 41.99Q97.71 40.87 96.92 40.77Q96.68 40.72 96.44 40.72L94.82 40.72L83.59 12.70L81.40 12.70L70.51 40.72L67.43 40.72L67.43 41.99L76.17 41.99Q76.17 40.87 75.44 40.77Q75.20 40.72 74.95 40.72L72.46 40.72L76.12 31.25L86.23 31.25L89.89 40.72L86.62 40.72L86.62 41.99L97.71 41.99M85.64 29.83L76.66 29.83L81.15 18.16L85.64 29.83Z"/></g></g></svg>